<svg enable-background="new 0 0 1000 1000" height="74.739426" viewBox="0 0 115.27072 74.739426" width="115.27072" xmlns="http://www.w3.org/2000/svg">
	<path d="m1.3985009.36364926c.7221863 2.52529974.7221863 2.50295194.2928736 4.14963084-.2258303.879797-.3610932 1.6008072-.3152214 1.6231549.0223478.0223478.3610932.2034825.7445341.383441.4740083.248178.7445341.631619.9691882 1.3526291l.3152214 1.0150599-1.7137223 4.4872-1.6913745 4.5119.74453411 1.037408c.49635609.698662.87979699 1.600807 1.12797509 2.773478.3387453 1.511416.4740083 1.781942 1.0597555 2.074815.7668819.405789.7445341.405789 1.2173662 4.4872l.3834409 3.134571 1.6690267 2.413561c1.511416 2.187731 1.6690267 2.548824 1.6690267 3.518012 0 .744534.1799585 1.374977.5869234 2.052468.5633995.992712.5633995.992712.3152214 3.630927-.1352629 1.443196-.2705258 2.886393-.2928736 3.180442-.044695.450485.090567.585748.8574493.78923.7892293.22583.9021443.361093.9691883.969188.06822.585747.203482.744534.744534.857449.766882.179959.78923.225831.203482 1.73607-.609271 1.600808-.586923 1.713723.338746 1.894857.924492.157611.94684.292874.315221 1.669027l-.450484 1.01506.586923.474008c.586924.474009.586924.474009.315222 1.871333-.270526 1.239714-.248178 1.57846.203482 3.382749.474008 1.939553.474008 2.052468.112915 3.923801l-.383441 1.917205.72101.811577c.496357.585747.722187 1.059756.722187 1.57846v.744534l2.886393.135263c1.578459.06822 8.907356.316397 16.282126.541051 13.282817.383441 13.598039.383441 30.44474-.112915 9.359018-.292874 18.695687-.563399 20.746979-.631619l3.720318-.135263 2.18773 2.480604c2.141859 2.413561 2.232426 2.480604 3.247486 2.571172l1.037408.06704-.135263-1.127975c-.06822-.609271-.181135-1.578459-.248178-2.141859l-.135263-1.01506 2.164207-1.217366c1.17267-.653967 2.232426-1.376153 2.345341-1.578459.08939-.203483.405789-1.172671.698662-2.165383.428137-1.465544.766882-2.097163 1.826633-3.427444l1.33029-1.600808-.3164-1.646679c-.29288-1.533763-.38344-1.713722-1.57846-2.864045-.698663-.653966-1.262063-1.330281-1.262063-1.465544 0-.112915.270526-1.217366.585748-2.413561l.585745-2.165383 2.72878-.405788c2.323-.338746 3.13457-.586924 5.29996-1.556112 3.42862-1.556111 3.99202-2.165383 4.21785-4.533072.15761-1.691374.17996-1.73607 1.26324-2.706434l1.10562-.992712.33875-2.458257c.27052-2.119511.20348-3.946148-.15761-4.216674-.0223-.02235-1.03741-.766882-2.23243-1.646679l-2.16538-1.600807-.29287-1.376153-.29288-1.376153-1.75842-1.127975c-1.33028-.857449-1.78194-1.263238-1.78194-1.624331 0-.902145-1.21736-4.239022-1.57846-4.32959-.18113-.06822-1.3985-.315221-2.70643-.586923-2.502953-.541052-3.338055-1.01506-3.810887-2.232426-.135263-.315222-.653967-2.458257-1.172671-4.735378l-.924492-4.1272804.722186-1.6231549c.383441-.879797.766882-1.7137223.833925-1.871333.06822-.1576107-.316397-.496356-.924492-.7668819-.946841-.4740083-1.059756-.6092712-1.623155-2.2324261l-.586924-1.71372225-6.697278.09056734c-30.467089.36109316-40.322462.38344095-59.220455.13526291-28.86980991-.40461253-27.471309-.40461253-27.3360461.06821956z" fill="#ffc102" stroke-width=".011762" />
	<path d="m51.944773 59.518905c-1.340696-1.384173-4.68288-4.078085-7.427076-5.986468-8.130836-5.654382-9.237795-6.473122-12.54273-9.276933-6.092852-5.169004-8.702055-10.384141-8.744138-17.477318-.02055-3.462608.22262-4.798216 1.246369-6.845724 1.736866-3.473772 4.313494-6.063104 7.620023-7.657584 2.341904-1.129312 3.497315-1.631763 7.421341-1.676576 4.104811-.04687 4.97216.394668 7.395737 1.618325 2.949907 1.4894 5.998176 4.692871 6.639942 6.97801l.396368 1.411379.938499-1.953083c5.303377-11.0367719 22.488444-10.9796729 28.548258.09487 1.922342 3.513154 2.184623 11.038651.532856 15.288987-2.154675 5.544406-6.245945 9.786686-15.727142 16.307632-6.217934 4.276553-13.243621 10.732179-13.729437 11.635743-.563953 1.04888-.02609.163981-2.56887-2.461256z" fill="#f00" stroke-width=".093353" />
</svg>
