<?xml version="1.0" encoding="UTF-8" standalone="no"?>
<svg
   xmlns:dc="http://purl.org/dc/elements/1.1/"
   xmlns:cc="http://creativecommons.org/ns#"
   xmlns:rdf="http://www.w3.org/1999/02/22-rdf-syntax-ns#"
   xmlns:svg="http://www.w3.org/2000/svg"
   xmlns="http://www.w3.org/2000/svg"
   xmlns:sodipodi="http://sodipodi.sourceforge.net/DTD/sodipodi-0.dtd"
   xmlns:inkscape="http://www.inkscape.org/namespaces/inkscape"
   height="639.84253"
   width="986.82996"
   inkscape:version="1.0 (4035a4f, 2020-05-01)"
   sodipodi:docname="b3ab2b1240b634de2f6e25f1f5ca115c.svg"
   id="svg190"
   xml:space="preserve"
   enable-background="new 0 0 1000 1000"
   viewBox="0 0 986.82996 639.84253"
   y="0px"
   x="0px"
   version="1.1"><defs
   id="defs194" /><sodipodi:namedview
   inkscape:current-layer="svg190"
   inkscape:window-maximized="0"
   inkscape:window-y="23"
   inkscape:window-x="0"
   inkscape:cy="490.50084"
   inkscape:cx="492.72109"
   inkscape:zoom="0.735"
   showgrid="false"
   id="namedview192"
   inkscape:window-height="1134"
   inkscape:window-width="1703"
   inkscape:pageshadow="2"
   inkscape:pageopacity="0"
   guidetolerance="10"
   gridtolerance="10"
   objecttolerance="10"
   borderopacity="1"
   bordercolor="#666666"
   pagecolor="#ffffff" />
<metadata
   id="metadata182"> Svg Vector Icons : http://www.onlinewebfonts.com/icon <rdf:RDF><cc:Work
     rdf:about=""><dc:format>image/svg+xml</dc:format><dc:type
       rdf:resource="http://purl.org/dc/dcmitype/StillImage" /></cc:Work></rdf:RDF></metadata>
<g
   transform="matrix(1.0069414,0,0,1.0069414,-10.069414,-183.5536)"
   id="g188"><g
     id="g186"
     transform="matrix(0.1,0,0,-0.1,0,511)"><path
       id="path184"
       d="m 218.9,3256.2 c 61.4,-214.7 61.4,-212.8 24.9,-352.8 -19.2,-74.8 -30.7,-136.1 -26.8,-138 1.9,-1.9 30.7,-17.3 63.3,-32.6 40.3,-21.1 63.3,-53.7 82.4,-115 L 389.5,2531.5 243.8,2150 100,1766.4 l 63.3,-88.2 c 42.2,-59.4 74.8,-136.1 95.9,-235.8 28.8,-128.5 40.3,-151.5 90.1,-176.4 65.2,-34.5 63.3,-34.5 103.5,-381.5 L 485.4,618 627.3,412.8 c 128.5,-186 141.9,-216.7 141.9,-299.1 0,-63.3 15.3,-116.9 49.9,-174.5 47.9,-84.4 47.9,-84.4 26.8,-308.7 -11.5,-122.7 -23,-245.4 -24.9,-270.4 -3.8,-38.3 7.7,-49.8 72.9,-67.1 67.1,-19.2 76.7,-30.7 82.4,-82.4 5.8,-49.8 17.3,-63.3 63.3,-72.9 65.2,-15.3 67.1,-19.2 17.3,-147.6 -51.8,-136.1 -49.9,-145.7 28.8,-161.1 78.6,-13.4 80.5,-24.9 26.8,-141.9 l -38.3,-86.3 49.9,-40.3 c 49.9,-40.3 49.9,-40.3 26.8,-159.1 -23,-105.4 -21.1,-134.2 17.3,-287.6 40.3,-164.9 40.3,-174.5 9.6,-333.6 l -32.6,-163 61.3,-69 c 42.2,-49.8 61.4,-90.1 61.4,-134.2 v -63.3 l 245.4,-11.5 c 134.2,-5.8 757.3,-26.9 1384.3,-46 1129.3,-32.6 1156.1,-32.6 2588.4,9.6 795.7,24.9 1589.5,47.9 1763.9,53.7 l 316.3,11.5 186,-210.9 c 182.1,-205.2 189.8,-210.9 276.1,-218.6 l 88.2,-5.7 -11.5,95.9 c -5.8,51.8 -15.4,134.2 -21.1,182.1 l -11.5,86.3 184,103.5 c 99.7,55.6 189.8,117 199.4,134.2 7.6,17.3 34.5,99.7 59.4,184.1 36.4,124.6 65.2,178.3 155.3,291.4 l 113.1,136.1 -26.9,140 c -24.9,130.4 -32.6,145.7 -134.2,243.5 -59.4,55.6 -107.3,113.1 -107.3,124.6 0,9.6 23,103.5 49.8,205.2 l 49.8,184.1 232,34.5 c 197.5,28.8 266.5,49.9 450.6,132.3 291.5,132.3 339.4,184.1 358.6,385.4 13.4,143.8 15.3,147.6 107.4,230.1 l 94,84.4 28.8,209 c 23,180.2 17.3,335.5 -13.4,358.5 -1.9,1.9 -88.2,65.2 -189.8,140 l -184.1,136.1 -24.9,117 -24.9,117 -149.5,95.9 c -113.1,72.9 -151.5,107.4 -151.5,138.1 0,76.7 -103.5,360.4 -134.2,368.1 -15.4,5.8 -118.9,26.8 -230.1,49.9 -212.8,46 -283.8,86.3 -324,189.8 -11.5,26.8 -55.6,209 -99.7,402.6 l -78.6,350.9 61.4,138 c 32.6,74.8 65.2,145.7 70.9,159.1 5.8,13.4 -26.9,42.2 -78.6,65.2 -80.5,40.3 -90.1,51.8 -138,189.8 l -49.9,145.7 -569.4,-7.7 C 4987.6,3242.8 4149.7,3240.9 2543,3262 88.5,3296.4 207.4,3296.4 218.9,3256.2 Z" /></g></g>
<path
   d="m 444.69798,509.53995 c -11.47766,-11.84987 -40.09002,-34.91239 -63.58302,-51.25001 -69.6079,-48.40703 -79.08455,-55.41624 -107.37802,-79.4196 -52.16076,-44.25173 -74.49809,-88.89839 -74.85836,-149.62291 -0.17589,-29.64331 1.90585,-41.07742 10.67014,-58.60609 14.86927,-29.73888 36.92772,-51.90609 65.23484,-65.55639 20.04898,-9.668015 29.94043,-13.969485 63.53392,-14.353135 35.14119,-0.40122 42.56655,3.37875 63.31473,13.854445 25.25409,12.75072 51.35025,40.17556 56.84439,59.73858 l 3.3933,12.08278 8.03447,-16.72029 c 45.40208,-94.485549 192.52304,-93.996726 244.40096,0.81214 16.45713,30.07603 18.70251,94.50163 4.56177,130.88866 -18.44612,47.46553 -53.47139,83.78359 -134.63969,139.60926 -53.23159,36.61147 -113.37833,91.87793 -117.53739,99.61332 -4.82799,8.97944 -0.22337,1.40384 -21.99204,-21.07076 z"
   id="path196"
   style="fill:#ff3300;fill-opacity:1;stroke-width:0.799196" /></svg>
